<?xml version="1.0" encoding="utf-8"?>
<!-- Generator: Adobe Illustrator 27.0.0, SVG Export Plug-In . SVG Version: 6.00 Build 0)  -->
<svg version="1.1" id="Layer_1" xmlns="http://www.w3.org/2000/svg" xmlns:xlink="http://www.w3.org/1999/xlink" x="0px" y="0px"
	 viewBox="0 0 32 32" style="enable-background:new 0 0 32 32;" xml:space="preserve">
<style type="text/css">
	.st0{fill:#F7A41D;}
</style>
<g>
	<g>
		<polygon class="st0" points="11.2,8.6 8.5,11.9 7.1,9.7 		"/>
		<polygon shape-rendering="crispEdges" class="st0" points="11.2,8.6 9.3,10.2 8.5,11.9 7.5,11.9 7.5,19.9 8.9,19.9 7.2,20.7 
			6,23.3 4.1,23.3 4.1,8.6 		"/>
		<polygon class="st0" points="8.9,19.9 6,23.3 4.7,21.6 		"/>
	</g>
	<g>
		<polygon class="st0" points="12.8,8.6 13.7,10.7 9.8,11.9 		"/>
		<polygon shape-rendering="crispEdges" class="st0" points="12.8,8.6 21.4,8.6 21.4,11.9 9.8,11.9 12.8,10 		"/>
		<polygon class="st0" points="22.2,19.9 19.2,23.3 18.1,21.3 		"/>
		<polygon shape-rendering="crispEdges" class="st0" points="22.2,19.9 19.7,21.3 19.2,23.3 10.6,23.3 10.6,19.9 		"/>
		<polygon class="st0" points="27.4,5.1 12.2,23.3 4.6,26.9 19.8,8.6 		"/>
	</g>
	<g>
		<polygon class="st0" points="26,8.6 25.9,11.3 23.1,12.1 		"/>
		<polygon shape-rendering="crispEdges" class="st0" points="27.9,8.6 27.9,23.3 20.6,23.3 22.7,21.5 23.5,19.9 24.5,19.9 
			24.5,12.1 23.1,12.1 24.6,10.7 26,8.6 		"/>
		<polygon class="st0" points="23.5,19.9 24.3,22.3 20.6,23.3 		"/>
	</g>
</g>
</svg>
